<?xml version="1.0" encoding="utf-8"?>
<svg xmlns="http://www.w3.org/2000/svg" xml:space="preserve" style="enable-background:new 0 0 512 512" viewBox="0 0 512 512"><path d="M230.4 229.5c0-14.1 11.5-25.6 25.6-25.6s25.6 11.5 25.6 25.6v153.6c0 14.1-11.5 25.6-25.6 25.6s-25.6-11.5-25.6-25.6V229.5zM256 103.3c-14.1 0-25.6 11.5-25.6 25.6s11.5 25.6 25.6 25.6 25.6-11.5 25.6-25.6-11.5-25.6-25.6-25.6z"/><path d="M256 0C114.6 0 0 114.6 0 256s114.6 256 256 256 256-114.6 256-256S397.4 0 256 0zm0 464c-114.7 0-208-93.3-208-208S141.3 48 256 48s208 93.3 208 208-93.3 208-208 208z"/></svg>