<?xml version="1.0" encoding="utf-8"?>
<svg xmlns="http://www.w3.org/2000/svg" viewBox="0 0 512 512"><path d="M336.1 175c-9.375-9.375-24.56-9.375-33.94 0L256 222.1 208.1 175c-9.375-9.375-24.56-9.375-33.94 0s-9.375 24.56 0 33.94l47.03 47.03L175 303c-9.375 9.375-9.375 24.56 0 33.94 9.373 9.373 24.56 9.381 33.94 0L256 289.9l47.03 47.03c9.373 9.373 24.56 9.381 33.94 0 9.375-9.375 9.375-24.56 0-33.94l-47.03-47.03 47.03-47.03c9.33-9.33 9.33-24.53-.87-33.93zM256 0C114.6 0 0 114.6 0 256s114.6 256 256 256 256-114.6 256-256S397.4 0 256 0zm0 464c-114.7 0-208-93.31-208-208S141.3 48 256 48s208 93.31 208 208-93.3 208-208 208z"/></svg>